<svg width="91" height="70" viewBox="0 0 91 70" fill="none" xmlns="http://www.w3.org/2000/svg">
<g clip-path="url(#clip0_1287_3596)">
<path d="M49.3835 25.2328C49.0309 25.519 48.5198 25.7285 47.84 25.8716L47.6509 25.9381C47.9576 26.071 48.1927 26.2856 48.3562 26.5872C48.5198 26.8887 48.6015 27.2312 48.6015 27.6247C48.6015 28.1 48.4533 28.5242 48.162 28.9076C47.8656 29.2858 47.4567 29.5873 46.92 29.802C46.3885 30.0167 45.7752 30.124 45.0852 30.124C44.339 30.124 43.6797 30.0218 43.1123 29.8173C42.545 29.6129 42.1055 29.3164 41.7937 28.9331C41.4819 28.5498 41.3286 28.1 41.3286 27.5838C41.3286 27.1238 41.4513 26.7354 41.6966 26.4185C41.9419 26.1016 42.2179 25.8614 42.5297 25.6979C42.8415 25.5343 43.1328 25.4168 43.4037 25.3452C42.6319 25.0386 42.2486 24.6092 42.2486 24.0624C42.2486 23.7813 42.3457 23.5461 42.5348 23.3417C42.7239 23.1424 42.9744 22.9891 43.2861 22.8868C43.5979 22.7846 43.9301 22.7335 44.2776 22.7335C44.5281 22.7335 44.7376 22.7488 44.9012 22.7846C45.0647 22.8204 45.2078 22.8715 45.3407 22.9482C45.7547 23.1526 45.9643 23.4286 45.9643 23.7761C45.9643 23.909 45.9285 24.0266 45.8569 24.1288C45.7854 24.231 45.6883 24.3077 45.5656 24.3639C45.443 24.4201 45.3152 24.4508 45.1772 24.4508C44.9625 24.4508 44.7836 24.3946 44.6456 24.2872C44.5076 24.1799 44.4361 24.0215 44.4361 23.817C44.4361 23.6433 44.4974 23.4899 44.6201 23.3519C44.7427 23.2139 44.8961 23.127 45.0903 23.0964C45.029 23.0453 44.937 22.9993 44.8143 22.9635C44.6916 22.9277 44.5588 22.9124 44.4105 22.9124C44.1703 22.9124 43.9557 22.9635 43.7614 23.0606C43.5672 23.1577 43.4139 23.311 43.3015 23.5104C43.189 23.7097 43.1328 23.955 43.1328 24.2464C43.1328 24.6399 43.2657 24.9874 43.5314 25.289C43.7819 25.2379 43.971 25.2072 44.1039 25.2072C44.2214 25.2072 44.3185 25.2328 44.385 25.2839C44.4514 25.335 44.4821 25.4014 44.4821 25.4832C44.4821 25.5445 44.4565 25.5957 44.4003 25.6365C44.3441 25.6774 44.2777 25.6979 44.1959 25.6979C44.1039 25.6979 44.0119 25.6774 43.9148 25.6365C43.8177 25.5957 43.7359 25.5548 43.6694 25.5139C43.603 25.473 43.557 25.4474 43.5417 25.4372C43.1941 25.611 42.9283 25.8308 42.7444 26.0914C42.5552 26.3521 42.4633 26.6843 42.4633 27.0829C42.4633 27.7423 42.7239 28.2329 43.2503 28.5651C43.7768 28.8973 44.5076 29.0609 45.4378 29.0609C45.9081 29.0609 46.3629 28.9945 46.7923 28.8565C47.2216 28.7185 47.5742 28.514 47.8451 28.2483C48.116 27.9774 48.2489 27.6605 48.2489 27.2874C48.2489 26.669 47.9882 26.2345 47.472 25.9892C47.2778 26.0505 47.0478 26.117 46.7923 26.1834C46.5367 26.255 46.3527 26.3061 46.2454 26.3419C45.8672 26.4236 45.5605 26.5105 45.3203 26.5974C45.0852 26.6843 44.9012 26.7865 44.7785 26.9041C44.6559 27.0216 44.5894 27.1647 44.5894 27.3283C44.5894 27.4918 44.6456 27.6349 44.753 27.7576C44.8603 27.8803 44.9983 27.9774 45.1721 28.0489C45.3407 28.1154 45.5196 28.1511 45.6985 28.1511C45.7701 28.1511 45.8467 28.1409 45.9336 28.1205C46.0205 28.1 46.0767 28.0796 46.1023 28.0489C45.9387 27.9927 45.8109 27.9058 45.7241 27.7883C45.6372 27.6707 45.5963 27.5327 45.5963 27.3743C45.5963 27.1647 45.6729 27.0012 45.8263 26.8836C45.9796 26.7661 46.1738 26.7047 46.414 26.7047C46.6543 26.7047 46.8485 26.7661 46.9916 26.8938C47.1347 27.0216 47.2011 27.1903 47.2011 27.3947C47.2011 27.7014 47.0631 27.9314 46.7923 28.0847C46.5214 28.2431 46.1738 28.3198 45.7496 28.3198C45.4685 28.3198 45.213 28.2738 44.983 28.1767C44.753 28.0796 44.569 27.9365 44.4361 27.7372C44.2981 27.5429 44.2317 27.3027 44.2317 27.0165C44.2317 26.5105 44.4259 26.1068 44.8143 25.8052C45.2027 25.5088 45.7701 25.2839 46.5111 25.1357C46.6389 25.0999 46.8638 25.0437 47.1909 24.967C47.518 24.8852 47.7991 24.8086 48.0342 24.7268C48.5607 24.599 48.944 24.4559 49.1995 24.3026C49.45 24.1492 49.5777 23.955 49.5777 23.7199C49.5777 23.5461 49.5215 23.3826 49.4091 23.2446C49.2966 23.1015 49.1535 22.9891 48.9746 22.9124C48.7958 22.8306 48.6118 22.7948 48.4175 22.7948C48.2898 22.7948 48.1876 22.8102 48.1211 22.8459C48.2744 22.9073 48.3971 22.9942 48.4891 23.1168C48.576 23.2344 48.622 23.3622 48.622 23.4899C48.622 23.6944 48.5453 23.8528 48.392 23.9704C48.2387 24.0879 48.0444 24.1492 47.8042 24.1492C47.5691 24.1492 47.38 24.0879 47.2318 23.9652C47.0836 23.8426 47.012 23.679 47.012 23.4695C47.012 23.2037 47.1245 22.9942 47.3596 22.8408C47.5896 22.6875 47.9013 22.6108 48.2898 22.6108C48.6066 22.6108 48.8878 22.6671 49.1331 22.7846C49.3784 22.8971 49.5675 23.0657 49.7055 23.2804C49.8435 23.5001 49.91 23.7557 49.91 24.0521C49.91 24.5581 49.7311 24.9517 49.3835 25.2328Z" fill="#4D4A4A"/>
<path d="M30.6571 33.6558C30.5651 33.431 30.4475 33.3134 30.3044 33.3134C30.2278 33.3134 30.1511 33.3339 30.0795 33.3747C30.008 33.4156 29.8802 33.5025 29.6962 33.6354C29.2618 33.9676 28.812 34.2181 28.3469 34.3918C27.8818 34.5605 27.3656 34.6474 26.7881 34.6474C25.5154 34.6474 24.4217 34.3816 23.5068 33.8552C22.592 33.3287 21.8969 32.5672 21.4113 31.5757C20.9309 30.5841 20.6907 29.3984 20.6907 28.0235C20.6907 26.6027 20.9462 25.3556 21.4573 24.2874C21.9684 23.2192 22.6788 22.3964 23.5886 21.8188C24.4984 21.2413 25.5257 20.95 26.6756 20.95C27.1765 20.95 27.6263 21.0011 28.0147 21.1084C28.4031 21.2157 28.7456 21.3486 29.0318 21.5122C29.318 21.6757 29.6502 21.8904 30.0284 22.1561C30.1869 22.2839 30.3095 22.3452 30.4015 22.3452C30.6366 22.3452 30.79 21.967 30.8666 21.2106H31.296C31.2448 22.0181 31.2244 23.4441 31.2244 25.4885H30.8002C30.6929 24.8241 30.5753 24.2772 30.4475 23.8479C30.3198 23.4237 30.1255 23.0506 29.8649 22.7337C29.502 22.2839 29.0318 21.9313 28.4594 21.6706C27.8818 21.4099 27.2838 21.2822 26.6501 21.2822C25.8323 21.2822 25.1168 21.5479 24.4984 22.0795C23.8799 22.611 23.4046 23.3726 23.0622 24.3539C22.7248 25.3403 22.5511 26.4903 22.5511 27.8089C22.5511 29.3013 22.7095 30.5177 23.0264 31.4683C23.3433 32.419 23.8288 33.1243 24.4779 33.5792C25.127 34.0341 25.9652 34.2641 26.9823 34.2641C27.7285 34.2641 28.3725 34.0698 28.9194 33.6814C29.1442 33.5281 29.2873 33.385 29.3538 33.247C29.4202 33.109 29.456 32.9148 29.456 32.6643V30.8755C29.456 30.3593 29.4049 29.9862 29.3129 29.7459C29.2158 29.5057 29.042 29.3422 28.7865 29.2553C28.5309 29.1684 28.1272 29.1122 27.5803 29.0866V28.7135C28.1936 28.7544 29.0676 28.7749 30.2073 28.7749C31.0813 28.7749 31.7253 28.7544 32.1444 28.7135V29.0866C31.8531 29.1122 31.6486 29.1633 31.5208 29.2349C31.3982 29.3115 31.3113 29.4495 31.2653 29.6591C31.2193 29.8635 31.1988 30.2059 31.1988 30.6864V34.3714H30.8104C30.8002 34.1209 30.7491 33.8807 30.6571 33.6558Z" fill="#4D4A4A"/>
<path d="M69.02 21.722C68.8156 21.7987 68.6776 21.9469 68.6009 22.1565C68.5242 22.366 68.4885 22.7084 68.4885 23.1735V32.404C68.4885 32.8691 68.5242 33.2115 68.6009 33.4211C68.6776 33.6357 68.8156 33.7788 69.02 33.8555C69.2244 33.9322 69.5464 33.9833 69.9962 33.9986V34.3717C69.4135 34.3359 68.6265 34.3155 67.6349 34.3155C66.5718 34.3155 65.7745 34.3359 65.2532 34.3717V33.9986C65.703 33.9781 66.025 33.9322 66.2243 33.8555C66.4236 33.7788 66.5616 33.6306 66.6383 33.4211C66.715 33.2115 66.7507 32.8691 66.7507 32.404V22.4478L62.2735 34.4637H61.972L57.2852 22.3916V32.2098C57.2852 32.6902 57.3261 33.048 57.413 33.2882C57.4999 33.5284 57.6583 33.7022 57.8883 33.8095C58.1234 33.9168 58.4812 33.9782 58.9718 33.9935V34.3666C58.5323 34.3308 57.8985 34.3104 57.0756 34.3104C56.3345 34.3104 55.7621 34.3308 55.3481 34.3666V33.9935C55.7775 33.973 56.0994 33.9117 56.3039 33.8095C56.5134 33.7022 56.6565 33.5284 56.7332 33.2882C56.8099 33.048 56.8508 32.6851 56.8508 32.2098V23.1786C56.8508 22.7135 56.815 22.3711 56.7383 22.1616C56.6617 21.952 56.5237 21.8038 56.3192 21.7271C56.1148 21.6505 55.7928 21.5994 55.343 21.584V21.2109C55.7468 21.2467 56.3243 21.2671 57.0705 21.2671C57.7247 21.2671 58.2563 21.2467 58.66 21.2109L62.7488 32.0002L66.7456 21.262H67.6247C68.6162 21.262 69.4033 21.2416 69.986 21.2058V21.5789C69.5515 21.5942 69.2244 21.6454 69.02 21.722Z" fill="#4D4A4A"/>
<path d="M42.8365 0.613297C42.7189 0.909734 43.0511 1.11417 43.2964 1.07329C43.3118 1.07329 43.3271 1.06817 43.3373 1.06817C43.3527 1.06306 43.368 1.05795 43.3833 1.05795C43.7053 1.33906 43.0307 2.19259 42.8007 2.37659C42.7087 2.44814 42.6116 2.51969 42.5094 2.58102C42.2845 2.63725 42.0596 2.67813 41.8296 2.72413C41.8092 2.71902 41.7836 2.71902 41.7632 2.71902C40.373 2.84168 39.1157 2.46858 37.7561 2.40214C37.2297 2.37659 36.6419 2.31014 36.1155 2.40214C35.0064 2.40725 33.9076 2.51969 32.778 2.7088C32.1392 2.81613 31.5156 2.97968 30.8972 3.17901C30.1714 3.32723 29.4201 3.639 28.7864 3.79744C27.4371 4.13476 26.1338 4.58964 24.7947 4.9423C22.4385 5.56073 20.2561 6.9458 17.8335 7.31379C17.7109 7.33424 17.6342 7.39557 17.5933 7.47223C17.1282 7.60512 16.6887 7.77378 16.2134 8.00378C16.0396 8.09066 15.8658 8.17244 15.692 8.25421C15.0992 8.43821 14.2303 8.84198 13.4688 8.93908C13.1263 8.92886 12.6101 8.88286 12.3903 8.73465C12.4057 8.63754 12.3801 8.54043 12.329 8.45865C12.3648 8.40754 12.421 8.34621 12.5028 8.27977C12.789 8.04977 12.4772 7.51823 12.1399 7.65112C11.7413 7.80956 11.547 8.07533 11.5113 8.37177C11.4244 8.45354 11.3733 8.57109 11.4039 8.70398C11.3937 8.73465 11.3937 8.76531 11.3937 8.79598C11.3681 9.01064 11.4193 9.24574 11.5061 9.44507C11.5215 9.49107 11.5317 9.53707 11.547 9.57796C11.5573 9.61373 11.5726 9.65462 11.5879 9.6904C11.0308 9.77728 10.4686 9.80284 9.92685 9.7364C9.11421 9.63418 5.6183 9.38374 5.91473 8.09577C5.95562 8.02933 6.00673 7.96289 6.05784 7.90156C6.21628 7.83511 6.37472 7.76356 6.53316 7.67667C6.79893 7.52845 6.75804 7.09402 6.46672 7.00202C6.40539 6.95602 6.32361 6.93047 6.22139 6.95091C4.93342 6.77714 3.15991 7.55912 3.54324 9.15375C3.55857 9.21508 3.57901 9.26619 3.59946 9.32241C3.53302 9.25597 3.46146 9.19463 3.39502 9.12308C3.39502 9.12308 3.46657 9.19974 3.59946 9.32241C3.84479 10.0124 4.47344 10.2628 5.12764 10.5133C5.27586 10.5695 5.42408 10.6257 5.56719 10.6819C7.42247 11.5252 9.67641 11.5457 12.4006 10.9886C11.8281 11.8472 11.409 12.8234 10.7906 13.6463C9.65086 15.1591 7.94379 15.4914 6.20606 15.9207C6.05273 15.9616 5.97606 16.166 6.11917 16.2682C7.19248 17.04 8.94554 16.9735 10.1926 16.8509C11.4908 16.7231 12.3137 16.3091 13.1672 15.4658C13.111 16.0893 12.8197 16.7793 13.8521 16.5902C14.9816 16.3858 16.1725 15.3329 16.7193 14.3669C17.0669 13.7587 17.2253 13.0688 17.3276 12.3839C17.3327 12.343 17.3378 12.297 17.3429 12.251C18.3191 10.7024 19.5457 9.2713 21.1966 8.42799C22.1728 7.92711 23.1796 7.49779 24.166 7.02247C25.0962 6.65448 26.052 6.27626 27.0435 5.88272C31.2499 4.21654 34.4187 3.46522 36.7595 3.18923C37.4393 3.2199 38.119 3.28123 38.8295 3.35789C39.2792 3.409 39.8465 3.51122 40.4496 3.593C40.4496 3.59811 40.4496 3.59811 40.4496 3.60322C39.1259 3.8281 37.8124 4.16543 36.5142 4.48231C35.4358 4.74297 34.3011 5.02407 33.2943 5.50451C32.4714 5.89805 31.7252 6.38359 30.887 6.75159C29.0368 7.56934 27.9686 9.10775 26.4558 10.3548C25.5511 11.101 24.2683 12.021 22.9956 11.6479C21.6514 11.2492 22.8883 10.9119 23.1081 10.3599C23.1439 10.2731 23.1081 10.1811 23.057 10.1146C22.4232 9.31219 21.447 9.62907 21.0228 10.4468C20.4759 11.4895 21.0279 12.8132 21.8865 13.5134C24.12 15.3329 27.4575 14.4129 29.1493 12.3072C29.3537 13.4827 29.737 15.0263 28.7966 15.6702C28.6637 15.7622 28.6995 15.9922 28.8273 16.0689C30.0386 16.7793 31.8938 16.2733 32.8189 15.3023C33.7236 14.3618 33.7849 13.1505 33.5958 11.975C33.8514 12.1232 34.1325 12.2203 34.4647 12.3021C34.5873 12.3328 34.7509 12.2817 34.7816 12.1386C34.9451 11.4128 34.4493 10.5695 34.3165 9.84884C33.9894 8.02422 34.6436 6.4807 36.3813 5.69872C38.3797 4.79919 40.6898 4.49764 42.8007 3.9201C43.046 3.86388 43.2862 3.81277 43.5213 3.70544C43.7973 3.57767 44.1653 3.409 44.3851 3.19945C44.6151 2.97457 44.7071 2.74458 44.748 2.49925C44.794 2.41747 44.8349 2.32548 44.8706 2.23348C45.3664 0.909734 43.46 -0.991551 42.8365 0.613297Z" fill="#4D4A4A"/>
<path d="M48.4587 0.613297C48.5762 0.909734 48.244 1.11417 47.9987 1.07329C47.9833 1.07329 47.968 1.06817 47.9578 1.06817C47.9424 1.06306 47.9271 1.05795 47.9118 1.05795C47.5898 1.33906 48.2644 2.19259 48.4944 2.37659C48.5864 2.44814 48.6835 2.51969 48.7858 2.58102C49.0106 2.63725 49.2355 2.67813 49.4655 2.72413C49.486 2.71902 49.5115 2.71902 49.532 2.71902C50.9221 2.84168 52.1794 2.46858 53.539 2.40214C54.0654 2.37659 54.6532 2.31014 55.1796 2.40214C56.2887 2.40725 57.3875 2.51969 58.5171 2.7088C59.1559 2.81613 59.7795 2.97968 60.3979 3.17901C61.1237 3.32723 61.8699 3.639 62.5087 3.79744C63.858 4.13476 65.1613 4.58964 66.5004 4.9423C68.8566 5.56073 71.039 6.9458 73.4616 7.31379C73.5842 7.33424 73.6609 7.39557 73.7018 7.47223C74.1669 7.60512 74.6064 7.77378 75.0818 8.00378C75.2555 8.09066 75.4293 8.17244 75.6031 8.25421C76.1959 8.43821 77.0648 8.84198 77.8264 8.93908C78.1688 8.92886 78.685 8.88286 78.9048 8.73465C78.8894 8.63754 78.915 8.54043 78.9661 8.45865C78.9303 8.40754 78.8741 8.34621 78.7923 8.27977C78.5061 8.04977 78.8179 7.51823 79.1552 7.65112C79.5539 7.80956 79.7481 8.07533 79.7839 8.37177C79.8708 8.45354 79.9219 8.57109 79.8912 8.70398C79.9014 8.73465 79.9014 8.76531 79.9014 8.79598C79.927 9.01064 79.8759 9.24574 79.789 9.44507C79.7736 9.49107 79.7634 9.53707 79.7481 9.57796C79.7379 9.61373 79.7225 9.65462 79.7072 9.6904C80.2643 9.77728 80.8265 9.80284 81.3683 9.7364C82.1809 9.63418 85.6768 9.38374 85.3804 8.09577C85.3395 8.02933 85.2884 7.96289 85.2373 7.90156C85.0788 7.83511 84.9204 7.76356 84.762 7.67667C84.4962 7.52845 84.5371 7.09402 84.8284 7.00202C84.8897 6.95602 84.9715 6.93047 85.0737 6.95091C86.3617 6.77714 88.1352 7.55912 87.7519 9.15375C87.7365 9.21508 87.7161 9.26619 87.6957 9.32241C87.7621 9.25597 87.8337 9.19463 87.9001 9.12308C87.9001 9.12308 87.8285 9.19974 87.6957 9.32241C87.4503 10.0124 86.8217 10.2628 86.1675 10.5133C86.0193 10.5695 85.871 10.6257 85.7279 10.6819C83.8726 11.5252 81.6187 11.5457 78.8946 10.9886C79.467 11.8472 79.8861 12.8234 80.5045 13.6463C81.6443 15.1591 83.3513 15.4914 85.0891 15.9207C85.2424 15.9616 85.319 16.166 85.1759 16.2682C84.1026 17.04 82.3496 16.9735 81.1025 16.8509C79.8043 16.7231 78.9814 16.3091 78.1279 15.4658C78.1841 16.0893 78.4754 16.7793 77.443 16.5902C76.3135 16.3858 75.1226 15.3329 74.5758 14.3669C74.2282 13.7587 74.0698 13.0688 73.9676 12.3839C73.9625 12.343 73.9573 12.297 73.9522 12.251C72.976 10.7024 71.7494 9.2713 70.0985 8.42799C69.1223 7.92711 68.1155 7.49779 67.1291 7.02247C66.1989 6.65448 65.2431 6.27626 64.2516 5.88272C60.0452 4.21143 56.8764 3.46522 54.5356 3.18923C53.8558 3.2199 53.1761 3.28123 52.4657 3.35789C52.0159 3.409 51.4486 3.51122 50.8455 3.593C50.8455 3.59811 50.8455 3.59811 50.8455 3.60322C52.1692 3.8281 53.4827 4.16543 54.7809 4.48231C55.8594 4.74297 56.994 5.02407 58.0009 5.50451C58.8237 5.89805 59.5699 6.38359 60.4081 6.75159C62.2583 7.56934 63.3265 9.10775 64.8393 10.3548C65.744 11.101 67.0269 12.021 68.2995 11.6479C69.6437 11.2492 68.4068 10.9119 68.187 10.3599C68.1513 10.2731 68.187 10.1811 68.2381 10.1146C68.8719 9.31219 69.8481 9.62907 70.2723 10.4468C70.8192 11.4895 70.2672 12.8132 69.4086 13.5134C67.1751 15.3329 63.8376 14.4129 62.1459 12.3072C61.9414 13.4827 61.5581 15.0263 62.4985 15.6702C62.6314 15.7622 62.5956 15.9922 62.4679 16.0689C61.2566 16.7793 59.4013 16.2733 58.4762 15.3023C57.5715 14.3618 57.5102 13.1505 57.6993 11.975C57.4438 12.1232 57.1627 12.2203 56.8304 12.3021C56.7078 12.3328 56.5442 12.2817 56.5136 12.1386C56.35 11.4128 56.8458 10.5695 56.9787 9.84884C57.3058 8.02422 56.6516 6.4807 54.9138 5.69872C52.9154 4.79919 50.6053 4.49764 48.4944 3.9201C48.2491 3.86388 48.0089 3.81277 47.7738 3.70544C47.4978 3.57767 47.1298 3.409 46.91 3.19945C46.68 2.97457 46.588 2.74458 46.5523 2.49925C46.5063 2.41747 46.4654 2.32548 46.4296 2.23348C45.9287 0.909734 47.8351 -0.991551 48.4587 0.613297Z" fill="#4D4A4A"/>
<path d="M11.8895 15.4203C11.7924 15.3181 11.6442 15.2976 11.5164 15.3436C11.3886 15.3845 11.2762 15.4561 11.1637 15.5378C10.9388 15.7014 10.714 15.8598 10.5044 16.0387C10.0853 16.3863 9.70198 16.7798 9.44132 17.2347C8.89956 18.1547 8.83823 19.2433 8.80245 20.3422C8.78201 20.8941 8.7769 21.4615 8.69001 22.039C8.60312 22.6165 8.45491 23.1787 8.24024 23.7205C8.0358 24.2674 7.74959 24.7836 7.41738 25.264C7.2436 25.5042 7.08005 25.7342 6.83984 25.9693C6.60984 26.1891 6.3594 26.3578 6.10896 26.5162C5.85853 26.6695 5.59787 26.8024 5.34232 26.9251C5.07655 27.0529 4.80055 27.1653 4.51434 27.2522C4.22812 27.3391 3.93169 27.4055 3.64036 27.4413C3.35415 27.4771 3.03215 27.5026 2.7255 27.4669C2.41884 27.4362 2.11729 27.3646 1.82085 27.2522C1.67263 27.196 1.52441 27.1244 1.38642 27.0324C1.24331 26.9455 1.08487 26.7973 0.987762 26.6491C0.778211 26.3373 0.711769 26.0051 0.681103 25.6985C0.660659 25.3867 0.650437 25.1056 0.737324 24.7529C0.936652 24.0936 1.4222 23.6438 1.95374 23.3525C2.22462 23.2094 2.52106 23.1072 2.82771 23.0714C3.13437 23.0356 3.4717 23.0612 3.76302 23.2043C4.05946 23.3474 4.28946 23.5978 4.41723 23.879C4.545 24.1703 4.60123 24.4565 4.56545 24.7785C4.49389 25.1158 4.23323 25.3254 3.98791 25.4634C3.73236 25.6014 3.46148 25.6831 3.19059 25.7393L3.13948 25.7496L3.17015 25.7138L3.3337 25.4991L3.20082 25.7291L3.18037 25.7036C3.44103 25.6116 3.69147 25.4889 3.90613 25.3356C4.12079 25.1823 4.30479 24.9727 4.31501 24.7478C4.32012 24.5178 4.24857 24.2418 4.12079 24.0425C3.99302 23.833 3.80902 23.6745 3.59436 23.5927C3.15993 23.4292 2.6335 23.5723 2.21951 23.8381C1.80041 24.0987 1.44775 24.5025 1.35575 24.9267C1.31486 25.1107 1.3302 25.402 1.35575 25.6371C1.38642 25.8773 1.45797 26.1022 1.5653 26.2504C1.62663 26.3271 1.67263 26.3731 1.76974 26.4293C1.86174 26.4855 1.96907 26.5316 2.08151 26.5724C2.30639 26.6491 2.55172 26.7002 2.79705 26.7155C3.26726 26.7513 3.80902 26.6593 4.28434 26.5111C4.52967 26.4344 4.76478 26.3322 4.99988 26.2198C5.2401 26.1022 5.4752 25.9745 5.70009 25.8416C5.91986 25.7087 6.13452 25.5605 6.30829 25.402C6.47184 25.2538 6.6354 25.034 6.78872 24.8245C7.09538 24.4003 7.34071 23.9301 7.55026 23.4496C7.75981 22.9641 7.91314 22.453 8.01025 21.9368C8.10225 21.4206 8.14825 20.8737 8.19424 20.3166C8.24535 19.7646 8.29135 19.1922 8.43446 18.63C8.56735 18.0678 8.79223 17.5158 9.12444 17.0353C9.46688 16.5549 9.91153 16.1767 10.3869 15.8752C10.622 15.7218 10.8673 15.5838 11.1126 15.4509C11.2404 15.3845 11.3682 15.3232 11.5164 15.3027C11.6442 15.2516 11.8077 15.3027 11.8895 15.4203Z" fill="#4D4A4A"/>
<path d="M79.5999 15.0156C79.6816 14.8981 79.8401 14.847 79.9832 14.8776C80.1263 14.8981 80.2592 14.9645 80.3869 15.0258C80.6323 15.1638 80.8776 15.2967 81.1127 15.4501C81.588 15.7567 82.0327 16.1298 82.3751 16.6102C82.7073 17.0907 82.9322 17.6427 83.0651 18.2049C83.2082 18.7671 83.2491 19.3395 83.3053 19.8915C83.3564 20.4435 83.3973 20.9904 83.4893 21.5117C83.5864 22.0279 83.7397 22.539 83.9493 23.0245C84.1588 23.5101 84.4093 23.9752 84.7108 24.3994C84.8642 24.6089 85.0277 24.8287 85.1913 24.9769C85.365 25.1354 85.5746 25.2836 85.7995 25.4165C86.0244 25.5494 86.2544 25.6771 86.4997 25.7947C86.7348 25.9071 86.9699 26.0093 87.2152 26.086C87.6956 26.2393 88.2323 26.3262 88.7025 26.2904C88.9478 26.2751 89.1932 26.224 89.418 26.1473C89.5305 26.1065 89.6378 26.0605 89.7298 26.0042C89.8218 25.948 89.8729 25.902 89.9342 25.8253C90.0467 25.6771 90.1131 25.4522 90.1438 25.212C90.1745 24.9769 90.1898 24.6856 90.1438 24.5016C90.0518 24.0774 89.6991 23.6736 89.28 23.413C88.8661 23.1523 88.3396 23.0092 87.9052 23.1676C87.6905 23.2494 87.5065 23.4079 87.3788 23.6174C87.2561 23.8218 87.1845 24.0978 87.1845 24.3227C87.1948 24.5476 87.3788 24.7623 87.5934 24.9105C87.8132 25.0638 88.0636 25.1865 88.3192 25.2785L88.2987 25.304L88.1659 25.074L88.3294 25.2887L88.3601 25.3245L88.309 25.3142C88.0381 25.258 87.7621 25.1763 87.5116 25.0383C87.2663 24.9054 87.0005 24.6958 86.9341 24.3534C86.8983 24.0314 86.9494 23.7401 87.0823 23.4539C87.2152 23.1727 87.4452 22.9223 87.7416 22.7792C88.0381 22.6361 88.3703 22.6105 88.677 22.6463C88.9887 22.6872 89.28 22.7843 89.5509 22.9274C90.0825 23.2187 90.568 23.6736 90.7673 24.3278C90.8542 24.6805 90.844 24.9616 90.8236 25.2734C90.7929 25.58 90.7213 25.9122 90.5169 26.224C90.4198 26.3722 90.2614 26.5204 90.1182 26.6073C89.9751 26.6993 89.832 26.7709 89.6838 26.8271C89.3874 26.9447 89.0858 27.0111 88.7792 27.0418C88.4674 27.0775 88.1505 27.052 87.8643 27.0162C87.5679 26.9753 87.2714 26.914 86.9903 26.8271C86.7041 26.7402 86.4281 26.6278 86.1624 26.5C85.9068 26.3722 85.6461 26.2444 85.3957 26.0911C85.1453 25.9327 84.8948 25.764 84.6648 25.5442C84.4195 25.3091 84.2611 25.0791 84.0873 24.8389C83.7551 24.3534 83.474 23.8423 83.2644 23.2954C83.0549 22.7536 82.9015 22.1863 82.8147 21.6139C82.7278 21.0364 82.7175 20.469 82.7022 19.9171C82.6664 18.8182 82.6051 17.7296 82.0633 16.8096C81.8027 16.3547 81.4194 15.9612 81.0003 15.6136C80.7907 15.4398 80.5658 15.2763 80.3409 15.1127C80.2285 15.0361 80.1161 14.9594 79.9883 14.9185C79.8452 14.893 79.697 14.9134 79.5999 15.0156Z" fill="#4D4A4A"/>
<path d="M42.8365 55.5103C42.7189 55.2139 43.0511 55.0094 43.2964 55.0503C43.3118 55.0503 43.3271 55.0554 43.3373 55.0554C43.3527 55.0605 43.368 55.0657 43.3833 55.0657C43.7053 54.7845 43.0307 53.931 42.8007 53.747C42.7087 53.6755 42.6116 53.6039 42.5094 53.5426C42.2845 53.4864 42.0596 53.4455 41.8296 53.3995C41.8092 53.4046 41.7836 53.4046 41.7632 53.4046C40.373 53.2819 39.1157 53.655 37.7561 53.7215C37.2297 53.747 36.6419 53.8135 36.1155 53.7215C35.0064 53.7164 33.9076 53.6039 32.778 53.4148C32.1392 53.3075 31.5156 53.1439 30.8972 52.9446C30.1714 52.7964 29.4201 52.4846 28.7864 52.3262C27.4371 51.9888 26.1338 51.534 24.7947 51.1813C22.4385 50.5629 20.2561 49.1778 17.8335 48.8098C17.7109 48.7894 17.6342 48.728 17.5933 48.6514C17.1282 48.5185 16.6887 48.3498 16.2134 48.1198C16.0396 48.0329 15.8658 47.9512 15.692 47.8694C15.0992 47.6854 14.2303 47.2816 13.4688 47.1845C13.1263 47.1947 12.6101 47.2407 12.3903 47.389C12.4057 47.4861 12.3801 47.5832 12.329 47.665C12.3648 47.7161 12.421 47.7774 12.5028 47.8438C12.789 48.0738 12.4772 48.6054 12.1399 48.4725C11.7413 48.314 11.547 48.0483 11.5113 47.7518C11.4244 47.6701 11.3733 47.5525 11.4039 47.4196C11.3937 47.389 11.3937 47.3583 11.3937 47.3276C11.3681 47.113 11.4193 46.8779 11.5061 46.6785C11.5215 46.6325 11.5317 46.5865 11.547 46.5456C11.5573 46.5099 11.5726 46.469 11.5879 46.4332C11.0308 46.3463 10.4686 46.3208 9.92685 46.3872C9.11421 46.4894 5.6183 46.7399 5.91473 48.0278C5.95562 48.0943 6.00673 48.1607 6.05784 48.222C6.21628 48.2885 6.37472 48.36 6.53316 48.4469C6.79893 48.5952 6.75804 49.0296 6.46672 49.1216C6.40539 49.1676 6.32361 49.1931 6.22139 49.1727C4.93342 49.3465 3.15991 48.5645 3.54324 46.9699C3.55857 46.9085 3.57901 46.8574 3.59946 46.8012C3.53302 46.8676 3.46146 46.929 3.39502 47.0005C3.39502 47.0005 3.46657 46.9239 3.59946 46.8012C3.84479 46.1112 4.47344 45.8608 5.12764 45.6103C5.27586 45.5541 5.42408 45.4979 5.56719 45.4417C7.42247 44.5984 9.67641 44.5779 12.4006 45.135C11.8281 44.2764 11.409 43.3002 10.7906 42.4773C9.65086 40.9645 7.94379 40.6322 6.20606 40.2029C6.05273 40.162 5.97606 39.9576 6.11917 39.8554C7.19248 39.0836 8.94554 39.1501 10.1926 39.2727C11.4908 39.4005 12.3137 39.8145 13.1672 40.6578C13.111 40.0343 12.8197 39.3443 13.8521 39.5334C14.9816 39.7378 16.1725 40.7907 16.7193 41.7567C17.0669 42.3649 17.2253 43.0548 17.3276 43.7397C17.3327 43.7806 17.3378 43.8266 17.3429 43.8726C18.3191 45.4212 19.5457 46.8523 21.1966 47.6956C22.1728 48.1965 23.1796 48.6258 24.166 49.1011C25.0962 49.4691 26.052 49.8473 27.0435 50.2409C31.2499 51.9071 34.4187 52.6584 36.7595 52.9344C37.4393 52.9037 38.119 52.8424 38.8295 52.7657C39.2792 52.7146 39.8465 52.6124 40.4496 52.5306C40.4496 52.5255 40.4496 52.5255 40.4496 52.5204C39.1259 52.2955 37.8124 51.9582 36.5142 51.6413C35.4358 51.3806 34.3011 51.0995 33.2943 50.6191C32.4714 50.2256 31.7252 49.74 30.887 49.372C29.0368 48.5543 27.9686 47.0159 26.4558 45.7688C25.5511 45.0226 24.2683 44.1026 22.9956 44.4757C21.6514 44.8744 22.8883 45.2117 23.1081 45.7637C23.1439 45.8506 23.1081 45.9426 23.057 46.009C22.4232 46.8114 21.447 46.4945 21.0228 45.6768C20.4759 44.6341 21.0279 43.3104 21.8865 42.6102C24.12 40.7907 27.4575 41.7107 29.1493 43.8164C29.3537 42.6409 29.737 41.0973 28.7966 40.4534C28.6637 40.3614 28.6995 40.1314 28.8273 40.0547C30.0386 39.3443 31.8938 39.8503 32.8189 40.8214C33.7236 41.7618 33.7849 42.9731 33.5958 44.1486C33.8514 44.0004 34.1325 43.9033 34.4647 43.8215C34.5873 43.7908 34.7509 43.8419 34.7816 43.985C34.9451 44.7108 34.4493 45.5541 34.3165 46.2748C33.9894 48.0994 34.6436 49.6429 36.3813 50.4249C38.3797 51.3244 40.6898 51.626 42.8007 52.2035C43.046 52.2597 43.2862 52.3108 43.5213 52.4182C43.7973 52.5459 44.1653 52.7146 44.3851 52.9242C44.6151 53.149 44.7071 53.379 44.748 53.6244C44.794 53.7061 44.8349 53.7981 44.8706 53.8901C45.3664 55.2139 43.46 57.1152 42.8365 55.5103Z" fill="#4D4A4A"/>
<path d="M48.4584 55.5103C48.576 55.2139 48.2437 55.0094 47.9984 55.0503C47.9831 55.0503 47.9678 55.0554 47.9575 55.0554C47.9422 55.0605 47.9269 55.0657 47.9115 55.0657C47.5895 54.7845 48.2642 53.931 48.4942 53.747C48.5862 53.6755 48.6833 53.6039 48.7855 53.5426C49.0104 53.4864 49.2353 53.4455 49.4653 53.3995C49.4857 53.4046 49.5113 53.4046 49.5317 53.4046C50.9219 53.2819 52.1792 53.655 53.5387 53.7215C54.0652 53.747 54.6529 53.8135 55.1793 53.7215C56.2884 53.7164 57.3873 53.6039 58.5168 53.4148C59.1557 53.3075 59.7792 53.1439 60.3977 52.9446C61.1234 52.7964 61.8696 52.4846 62.5085 52.3262C63.8578 51.9888 65.1611 51.534 66.5002 51.1813C68.8563 50.5629 71.0387 49.1778 73.4613 48.8098C73.584 48.7894 73.6607 48.728 73.7015 48.6514C74.1666 48.5185 74.6062 48.3498 75.0815 48.1198C75.2553 48.0329 75.4291 47.9512 75.6028 47.8694C76.1957 47.6854 77.0646 47.2816 77.8261 47.1845C78.1685 47.1947 78.6848 47.2407 78.9045 47.389C78.8892 47.4861 78.9147 47.5832 78.9659 47.665C78.9301 47.7161 78.8739 47.7774 78.7921 47.8438C78.5059 48.0738 78.8176 48.6054 79.155 48.4725C79.5536 48.314 79.7478 48.0483 79.7836 47.7518C79.8705 47.6701 79.9216 47.5525 79.8909 47.4196C79.9012 47.389 79.9012 47.3583 79.9012 47.3276C79.9267 47.113 79.8756 46.8779 79.7887 46.6785C79.7734 46.6325 79.7632 46.5865 79.7478 46.5456C79.7376 46.5099 79.7223 46.469 79.7069 46.4332C80.264 46.3463 80.8263 46.3208 81.368 46.3872C82.1807 46.4894 85.6766 46.7399 85.3801 48.0278C85.3393 48.0943 85.2881 48.1607 85.237 48.222C85.0786 48.2885 84.9202 48.36 84.7617 48.4469C84.4959 48.5952 84.5368 49.0296 84.8282 49.1216C84.8895 49.1676 84.9713 49.1931 85.0735 49.1727C86.3614 49.3465 88.135 48.5645 87.7516 46.9699C87.7363 46.9085 87.7159 46.8574 87.6954 46.8012C87.7619 46.8676 87.8334 46.929 87.8999 47.0005C87.8999 47.0005 87.8283 46.9239 87.6954 46.8012C87.4501 46.1112 86.8214 45.8608 86.1672 45.6103C86.019 45.5541 85.8708 45.4979 85.7277 45.4417C83.8724 44.5984 81.6185 44.5779 78.8943 45.135C79.4667 44.2764 79.8858 43.3002 80.5043 42.4773C81.644 40.9645 83.3511 40.6322 85.0888 40.2029C85.2421 40.162 85.3188 39.9576 85.1757 39.8554C84.1024 39.0836 82.3493 39.1501 81.1022 39.2727C79.8041 39.4005 78.9812 39.8145 78.1277 40.6578C78.1839 40.0343 78.4752 39.3443 77.4428 39.5334C76.3133 39.7378 75.1224 40.7907 74.5755 41.7567C74.228 42.3649 74.0695 43.0548 73.9673 43.7397C73.9622 43.7806 73.9571 43.8266 73.952 43.8726C72.9758 45.4212 71.7491 46.8523 70.0983 47.6956C69.1221 48.1965 68.1152 48.6258 67.1288 49.1011C66.1986 49.4691 65.2429 49.8473 64.2513 50.2409C60.045 51.9071 56.8762 52.6584 54.5354 52.9344C53.8556 52.9037 53.1758 52.8424 52.4654 52.7657C52.0157 52.7146 51.4483 52.6124 50.8452 52.5306C50.8452 52.5255 50.8452 52.5255 50.8452 52.5204C52.169 52.2955 53.4825 51.9582 54.7807 51.6413C55.8591 51.3806 56.9937 51.0995 58.0006 50.6191C58.8235 50.2256 59.5697 49.74 60.4079 49.372C62.2581 48.5543 63.3263 47.0159 64.8391 45.7688C65.7437 45.0226 67.0266 44.1026 68.2992 44.4757C69.6434 44.8744 68.4066 45.2117 68.1868 45.7637C68.151 45.8506 68.1868 45.9426 68.2379 46.009C68.8717 46.8114 69.8479 46.4945 70.2721 45.6768C70.819 44.6341 70.267 43.3104 69.4083 42.6102C67.1748 40.7907 63.8374 41.7107 62.1456 43.8164C61.9412 42.6409 61.5579 41.0973 62.4983 40.4534C62.6312 40.3614 62.5954 40.1314 62.4676 40.0547C61.2563 39.3443 59.401 39.8503 58.4759 40.8214C57.5713 41.7618 57.51 42.9731 57.6991 44.1486C57.4435 44.0004 57.1624 43.9033 56.8302 43.8215C56.7075 43.7908 56.544 43.8419 56.5133 43.985C56.3498 44.7108 56.8455 45.5541 56.9784 46.2748C57.3055 48.0994 56.6513 49.6429 54.9136 50.4249C52.9152 51.3244 50.605 51.626 48.4942 52.2035C48.2489 52.2597 48.0086 52.3108 47.7735 52.4182C47.4975 52.5459 47.1296 52.7146 46.9098 52.9242C46.6798 53.149 46.5878 53.379 46.552 53.6244C46.506 53.7061 46.4651 53.7981 46.4293 53.8901C45.9285 55.2139 47.8349 57.1152 48.4584 55.5103Z" fill="#4D4A4A"/>
<path d="M11.8895 40.7037C11.8077 40.8213 11.6492 40.8724 11.5061 40.8417C11.363 40.8213 11.2301 40.7548 11.1024 40.6935C10.857 40.5555 10.6117 40.4226 10.3766 40.2693C9.90128 39.9626 9.45662 39.5895 9.11419 39.1091C8.78197 38.6287 8.55709 38.0767 8.42421 37.5145C8.2811 36.9523 8.24021 36.3798 8.18399 35.8278C8.13288 35.2759 8.09199 34.729 8 34.2077C7.90289 33.6863 7.74956 33.1804 7.54001 32.6948C7.33046 32.2093 7.08002 31.7442 6.77847 31.32C6.62514 31.1104 6.46159 30.8906 6.29804 30.7424C6.12427 30.584 5.91472 30.4358 5.68983 30.3029C5.46495 30.17 5.23495 30.0422 4.98963 29.9247C4.75452 29.8122 4.51942 29.71 4.27409 29.6333C3.79366 29.48 3.25701 29.3931 2.78679 29.4289C2.54147 29.4442 2.29614 29.4953 2.07126 29.572C1.95882 29.6129 1.85149 29.6589 1.75949 29.7151C1.66749 29.7713 1.61638 29.8173 1.55505 29.894C1.44261 30.0422 1.37616 30.2671 1.3455 30.5073C1.31483 30.7424 1.2995 31.0337 1.3455 31.2177C1.4375 31.642 1.79015 32.0457 2.20925 32.3064C2.62324 32.567 3.14967 32.7101 3.58411 32.5517C3.79877 32.4699 3.98276 32.3115 4.11054 32.1019C4.2332 31.8975 4.30476 31.6215 4.30476 31.3966C4.29453 31.1717 4.11054 30.9571 3.89588 30.8089C3.67611 30.6555 3.42567 30.5329 3.17012 30.4409L3.19056 30.4153L3.32345 30.6453L3.1599 30.4306L3.12923 30.3949L3.18034 30.4051C3.45122 30.446 3.72722 30.5226 3.97765 30.6658C4.22298 30.7986 4.48875 31.0082 4.55519 31.3506C4.59097 31.6726 4.53986 31.9639 4.40698 32.2502C4.27409 32.5313 4.0441 32.7817 3.75277 32.9248C3.45633 33.0679 3.12412 33.0935 2.81746 33.0577C2.50569 33.0168 2.21437 32.9197 1.94348 32.7766C1.41194 32.4853 0.926398 32.0304 0.72707 31.3762C0.640183 31.0235 0.650405 30.7424 0.670849 30.4306C0.701515 30.124 0.773068 29.7918 0.977508 29.48C1.07462 29.3318 1.23306 29.1836 1.37616 29.0967C1.51927 29.0047 1.66238 28.9331 1.8106 28.8769C2.10703 28.7594 2.40858 28.6929 2.71524 28.6623C3.02701 28.6265 3.34389 28.652 3.63011 28.6878C3.92654 28.7287 4.22298 28.79 4.50408 28.8769C4.7903 28.9638 5.06629 29.0762 5.33206 29.204C5.58761 29.3267 5.84827 29.4596 6.09871 29.6129C6.34915 29.7713 6.59959 29.94 6.82958 30.1598C7.07491 30.3949 7.23335 30.6249 7.40712 30.8651C7.73934 31.3506 8.02044 31.8617 8.22999 32.4086C8.43954 32.9504 8.59287 33.5177 8.67976 34.0901C8.76664 34.6677 8.77686 35.235 8.7922 35.787C8.82797 36.8858 8.88931 37.9745 9.43107 38.8944C9.69173 39.3493 10.0751 39.7429 10.4942 40.0904C10.7037 40.2642 10.9286 40.4277 11.1535 40.5913C11.2659 40.6679 11.3784 40.7446 11.5061 40.7855C11.6441 40.8264 11.7872 40.8059 11.8895 40.7037Z" fill="#4D4A4A"/>
<path d="M79.5996 41.1075C79.6967 41.2097 79.8449 41.2302 79.9727 41.1842C80.1005 41.1433 80.2129 41.0717 80.3254 40.99C80.5503 40.8264 80.7751 40.668 80.9847 40.4891C81.4038 40.1415 81.7871 39.748 82.0478 39.2931C82.5895 38.3731 82.6509 37.2845 82.6866 36.1856C82.7071 35.6337 82.7122 35.0663 82.7991 34.4888C82.886 33.9113 83.0342 33.349 83.2488 32.8073C83.4533 32.2604 83.7395 31.7442 84.0717 31.2638C84.2455 31.0235 84.409 30.7936 84.6493 30.5585C84.8792 30.3387 85.1297 30.17 85.3801 30.0116C85.6306 29.8582 85.8912 29.7254 86.1468 29.6027C86.4125 29.4749 86.6885 29.3625 86.9748 29.2756C87.261 29.1887 87.5574 29.1223 87.8487 29.0865C88.1349 29.0507 88.4569 29.0252 88.7636 29.0609C89.0703 29.0916 89.3718 29.1632 89.6682 29.2756C89.8165 29.3318 89.9647 29.4034 90.1027 29.4954C90.2458 29.5823 90.4042 29.7305 90.5013 29.8787C90.7058 30.1905 90.7773 30.5227 90.808 30.8293C90.8284 31.1411 90.8387 31.4222 90.7518 31.7749C90.5524 32.4342 90.0669 32.8839 89.5353 33.1753C89.2645 33.3184 88.968 33.4206 88.6614 33.4564C88.3547 33.4922 88.0174 33.4666 87.7261 33.3235C87.4296 33.1804 87.1996 32.9299 87.0668 32.6488C86.939 32.3575 86.8828 32.0713 86.9185 31.7493C86.9901 31.412 87.2507 31.2024 87.4961 31.0644C87.7516 30.9264 88.0225 30.8447 88.2934 30.7884L88.3445 30.7782L88.3138 30.814L88.1503 31.0287L88.2832 30.7987L88.3036 30.8242C88.0429 30.9162 87.7925 31.0389 87.5779 31.1922C87.3632 31.3455 87.1792 31.5551 87.169 31.78C87.1639 32.01 87.2354 32.286 87.3632 32.4853C87.491 32.6948 87.675 32.8533 87.8896 32.9351C88.324 33.0986 88.8505 32.9555 89.2645 32.6897C89.6836 32.4291 90.0362 32.0253 90.1282 31.6011C90.1691 31.4171 90.1538 31.1258 90.1282 30.8907C90.0976 30.6504 90.026 30.4256 89.9187 30.2773C89.8573 30.2007 89.8113 30.1547 89.7142 30.0985C89.6222 30.0422 89.5149 29.9962 89.4025 29.9554C89.1776 29.8787 88.9323 29.8276 88.6869 29.8122C88.2167 29.7765 87.675 29.8685 87.1996 30.0167C86.9543 30.0934 86.7192 30.1956 86.4841 30.308C86.2439 30.4256 86.0088 30.5533 85.7839 30.6862C85.5641 30.8191 85.3495 30.9673 85.1757 31.1258C85.0121 31.274 84.8486 31.4938 84.6953 31.7033C84.3886 32.1275 84.1433 32.5977 83.9337 33.0782C83.7242 33.5637 83.5708 34.0748 83.4737 34.591C83.3817 35.1072 83.3357 35.6541 83.2897 36.2112C83.2386 36.7632 83.1926 37.3356 83.0495 37.8978C82.9166 38.46 82.6917 39.012 82.3595 39.4924C82.0171 39.9729 81.5724 40.3511 81.0971 40.6526C80.862 40.806 80.6167 40.9389 80.3714 41.0768C80.2436 41.1433 80.1158 41.2046 79.9676 41.2251C79.8398 41.2762 79.6763 41.2251 79.5996 41.1075Z" fill="#4D4A4A"/>
<path d="M14.1741 54.2832L14.4092 54.0583L16.1367 55.331L15.9067 55.561L15.2729 55.2952L14.9867 57.6514L17.1027 56.665L16.5864 56.0619L16.8113 55.8268L18.3242 56.9409L18.0993 57.1709L17.578 56.9869L14.8998 58.1625L13.8572 59.5731L14.3274 60.0995L14.0923 60.3449L12.375 59.0773L12.5948 58.8525L13.2234 59.0671L14.1843 57.7689L14.5472 54.7688L14.1741 54.2832Z" fill="#4D4A4A"/>
<path d="M18.4111 63.2428C17.9971 63.0077 17.6904 62.6959 17.486 62.3024C17.2866 61.9088 17.1997 61.4846 17.2253 61.0246C17.256 60.5647 17.394 60.1149 17.6444 59.6702C17.9102 59.2 18.2424 58.8371 18.641 58.5867C19.0397 58.3363 19.4741 58.2085 19.9443 58.2085C20.4146 58.2085 20.8899 58.3465 21.3703 58.6174C21.7996 58.8627 22.1114 59.1796 22.3107 59.5834C22.5101 59.982 22.5918 60.4164 22.5561 60.8764C22.5203 61.3415 22.3772 61.7862 22.1318 62.2206C21.8865 62.6499 21.5696 62.9924 21.1761 63.2428C20.7825 63.4984 20.343 63.6312 19.8626 63.6415C19.3821 63.6517 18.8966 63.5188 18.4111 63.2428ZM21.0023 58.8729C20.0823 58.3516 19.2799 58.7043 18.5797 59.9258C18.3651 60.3091 18.2117 60.6924 18.1248 61.086C18.038 61.4795 18.0482 61.8424 18.1504 62.1746C18.2526 62.5068 18.4724 62.7675 18.8097 62.9617C19.3208 63.253 19.7706 63.2837 20.1743 63.0588C20.573 62.8339 20.9257 62.4608 21.2221 61.9344C21.4316 61.5664 21.5799 61.1831 21.6667 60.7844C21.7536 60.3858 21.7485 60.0178 21.6463 59.6753C21.5492 59.3278 21.3345 59.062 21.0023 58.8729Z" fill="#4D4A4A"/>
<path d="M24.3858 60.9018L23.7367 60.4418L23.9104 60.1658L26.0264 61.0346L25.868 61.3157L25.1473 61.1931L24.1507 63.6157C23.9309 64.1523 23.89 64.597 24.0229 64.9599C24.1609 65.3176 24.4369 65.5834 24.856 65.7572C25.2597 65.9258 25.6226 65.931 25.9446 65.7776C26.2615 65.6243 26.5273 65.3023 26.7317 64.8065L27.7795 62.297L27.1304 61.8371L27.2939 61.556L29.1594 62.3226L28.9959 62.6037L28.2855 62.4862L27.2786 64.8781C26.9821 65.5885 26.6039 66.0536 26.1439 66.2734C25.684 66.4932 25.1218 66.4625 24.4522 66.1916C23.8951 65.9616 23.4913 65.6345 23.246 65.2154C23.0007 64.7912 23.0262 64.2086 23.3329 63.4675L24.3858 60.9018Z" fill="#4D4A4A"/>
<path d="M30.3861 68.0931L28.1526 67.4798L28.2804 67.1936L29.0112 67.1885L30.105 63.2019L29.4406 62.8902L29.5683 62.5886C29.9619 62.6295 30.3094 62.6755 30.611 62.7266C30.9176 62.7726 31.2038 62.8391 31.4747 62.9106C32.1238 63.0895 32.5991 63.3246 32.9007 63.6159C33.2022 63.9073 33.2942 64.2804 33.1716 64.7301C33.1205 64.909 33.0285 65.0777 32.8854 65.2361C32.7422 65.3946 32.5634 65.5223 32.3487 65.6297C32.134 65.7319 31.8887 65.7932 31.6178 65.8137V65.8188L32.0727 67.0352C32.1903 67.3572 32.2874 67.5923 32.3538 67.7456C32.4203 67.8989 32.502 68.0318 32.5991 68.1494C32.6911 68.2669 32.8138 68.3743 32.962 68.4663L33.0847 68.5429L32.9467 68.8036C32.778 68.8138 32.6043 68.7985 32.4356 68.7525C32.134 68.6707 31.8938 68.4969 31.7098 68.2363C31.5309 67.9756 31.3878 67.6434 31.2907 67.2396L30.9585 65.9056L30.2481 65.7114L29.7881 67.3827L30.5036 67.766L30.3861 68.0931ZM30.9636 63.1559L30.3656 65.3383L31.1732 65.5581C31.4236 65.5428 31.6485 65.4712 31.858 65.3332C32.0625 65.1952 32.2056 64.9959 32.2771 64.725C32.3385 64.5001 32.3487 64.2906 32.3078 64.0964C32.2669 63.897 32.1749 63.7284 32.0318 63.5802C31.8887 63.437 31.6996 63.3297 31.4645 63.2684C31.347 63.2377 31.2396 63.2071 31.1476 63.1917C31.0454 63.1713 30.9841 63.1611 30.9636 63.1559Z" fill="#4D4A4A"/>
<path d="M36.2381 64.0759L40.8942 64.6432L40.5774 66.0437L40.194 65.9312L40.1532 64.9448L38.8754 64.7915L38.349 69.1409L39.1054 69.376L39.0083 69.7031L36.7492 69.4271L36.8157 69.1205L37.5466 69.008L38.073 64.6841L36.8361 64.5359L36.4886 65.5274L36.1155 65.4252L36.2381 64.0759Z" fill="#4D4A4A"/>
<path d="M41.3644 64.9555L41.4207 64.6335L45.6219 64.746L45.4532 66.0953L45.0852 66.0288L44.937 65.1191L42.9488 65.068L42.8977 67.0766L44.1244 67.1073L44.3135 66.6064L44.7172 66.5553L44.5281 68.1959L44.1704 68.2419L44.0477 67.5008L42.8926 67.4701L42.8364 69.5248L44.9268 69.581L45.3663 68.6201L45.7139 68.6866L45.5503 70.0052L41.2673 69.8927L41.3082 69.581L42.0186 69.4021L42.1311 65.16L41.3644 64.9555Z" fill="#4D4A4A"/>
<path d="M46.3374 69.9637L46.3578 69.6417L46.874 69.4066L48.2285 67.1936L46.6134 65.185L46.0205 65.0572L46.041 64.725L48.1978 64.5308L48.1876 64.8579L47.5436 65.1083L48.7191 66.5751L49.7157 64.8936L48.9849 64.7914L49.0104 64.4592L50.8402 64.2957L50.8351 64.6176L50.3137 64.8272L49.0718 66.9431L50.7124 69.1L51.295 69.192L51.2695 69.5344L49.1535 69.7235L49.1791 69.4066L49.8333 69.1511L48.576 67.5309L47.5027 69.376L48.2131 69.4577L48.1876 69.8002L46.3374 69.9637Z" fill="#4D4A4A"/>
<path d="M51.2695 64.219L55.8694 63.2888L56.0125 64.7148L55.6088 64.7301L55.2561 63.805L53.9937 64.0606L54.8626 68.3538L55.6548 68.3385L55.665 68.6809L53.4366 69.1307L53.4059 68.8189L54.0652 68.4816L53.2015 64.2139L51.98 64.4592L51.9646 65.507L51.5762 65.5274L51.2695 64.219Z" fill="#4D4A4A"/>
<path d="M57.9446 63.0584L57.8782 62.7415L60.0299 61.9442L60.1014 62.2611L59.4932 62.6598L60.1372 64.3924L62.6161 63.4724L61.9772 61.7551L61.1901 61.8573L61.1236 61.5405L63.2856 60.738L63.352 61.0549L62.7489 61.4536L64.2413 65.4759L65.0131 65.343L65.0898 65.6752L62.9432 66.4726L62.8716 66.1659L63.4594 65.7366L62.7694 63.8864L60.2854 64.8064L60.9857 66.6872L61.7625 66.5492L61.829 66.8865L59.6875 67.6839L59.6108 67.3772L60.2037 66.9479L58.7266 62.9715L57.9446 63.0584Z" fill="#4D4A4A"/>
<path d="M63.766 60.8051L63.6587 60.4984L67.3948 58.5818L67.8957 59.8442L67.543 59.9618L66.9757 59.2309L65.2073 60.1406L66.1273 61.9295L67.2159 61.3724L67.1444 60.8408L67.4766 60.6057L68.1001 62.1339L67.8037 62.3486L67.3386 61.7557L66.3113 62.2821L67.2517 64.1119L69.1121 63.1561L69.0354 62.1033L69.3728 61.9908L69.8634 63.2226L66.0506 65.1801L65.9382 64.8887L66.4748 64.393L64.5378 60.616L63.766 60.8051Z" fill="#4D4A4A"/>
<path d="M72.6846 61.4337L70.7527 62.7063L70.6198 62.4201L71.1002 61.8681L68.8258 58.4182L68.1512 58.7095L68.0081 58.4131C68.2994 58.1473 68.56 57.9173 68.8003 57.718C69.0405 57.5238 69.2756 57.3449 69.5107 57.1915C70.0729 56.8235 70.5636 56.6191 70.9827 56.5833C71.4018 56.5476 71.7442 56.7264 71.9997 57.1149C72.102 57.2682 72.1633 57.4522 72.1888 57.6617C72.2144 57.8713 72.1939 58.0911 72.1275 58.3211C72.0611 58.5511 71.9486 58.7759 71.7851 58.9906V58.9957L72.9964 59.4557C73.3184 59.5784 73.5586 59.6653 73.717 59.7164C73.8755 59.7675 74.0339 59.793 74.1821 59.8033C74.3303 59.8084 74.4939 59.7879 74.6626 59.7368L74.8006 59.6959L74.9079 59.9719C74.8057 60.1048 74.6779 60.2223 74.5297 60.3195C74.269 60.4932 73.9828 60.5597 73.6659 60.5239C73.349 60.4881 73.0066 60.3757 72.6386 60.1815L71.4171 59.5477L70.8038 59.9515L71.7595 61.403L72.5211 61.1168L72.6846 61.4337ZM69.3522 57.7435L70.5993 59.6346L71.2995 59.1746C71.4529 58.9804 71.55 58.7606 71.5806 58.5153C71.6164 58.27 71.5551 58.0297 71.4017 57.7997C71.274 57.6055 71.1206 57.4624 70.9469 57.3602C70.768 57.2631 70.5789 57.2171 70.3796 57.2273C70.1751 57.2375 69.9758 57.3142 69.7713 57.4471C69.6691 57.5135 69.5771 57.58 69.5005 57.6362C69.4238 57.6873 69.3727 57.7231 69.3522 57.7435Z" fill="#4D4A4A"/>
<path d="M72.5261 55.5662L72.3574 55.2902L75.5927 52.6121L76.3542 53.7365L76.0373 53.9307L75.3269 53.3429L73.7936 54.6105L75.0765 56.1591L76.022 55.3771L75.838 54.8711L76.1089 54.5696L77.0442 55.9291L76.804 56.2L76.2213 55.7195L75.3269 56.4555L76.6353 58.0399L78.2453 56.706L77.9437 55.694L78.2504 55.5151L78.9966 56.614L75.6949 59.3432L75.5211 59.0826L75.9402 58.4795L73.2365 55.2084L72.5261 55.5662Z" fill="#4D4A4A"/>
</g>
<defs>
<clipPath id="clip0_1287_3596">
<rect width="90.173" height="70" fill="white" transform="translate(0.655518)"/>
</clipPath>
</defs>
</svg>
