<svg width="125" height="134" viewBox="0 0 125 134" fill="none" xmlns="http://www.w3.org/2000/svg">
<path d="M13.435 77.6267L3.19535 83.9496V85.3932L2.75962 85.4663L2.01525 80.6054L2.45098 80.5323L2.88671 81.5008L10.4938 76.9871L4.95643 75.8724L2.23312 77.6084L2.17865 78.7597L1.74292 78.8328L0.962237 73.716L1.39797 73.6429L1.92447 75.1597L9.53159 70.6459L1.28903 68.9282L0.998548 70.8287L0.562818 70.9018L0 67.119L0.43573 67.0459L1.16195 68.3068L12.382 70.6642L12.4728 71.2673L5.66449 75.4338L13.3442 77.0054L13.435 77.6267Z" fill="#DBDBDB"/>
<path d="M11.8738 59.8091C11.2202 60.5584 10.4032 61.0883 9.44093 61.399C8.46054 61.7096 7.40752 61.7645 6.28189 61.5269C5.15625 61.2893 4.21217 60.8507 3.44964 60.1746C2.68712 59.4984 2.14245 58.6944 1.83381 57.7441C1.52517 56.7939 1.48886 55.807 1.68857 54.7837C1.90643 53.7603 2.32401 52.8649 2.9776 52.1156C3.6312 51.3664 4.43004 50.8364 5.41043 50.5258C6.37266 50.2151 7.42568 50.1786 8.55131 50.3979C9.67695 50.6354 10.621 51.074 11.4017 51.7502C12.1824 52.4263 12.7089 53.2304 13.0175 54.1806C13.3262 55.1309 13.3625 56.1177 13.1628 57.1411C12.9449 58.1827 12.5092 59.0599 11.8738 59.8091ZM12.019 54.4182C11.3654 53.7238 10.4032 53.2487 9.13229 52.9745L6.98995 52.536C5.71907 52.2801 4.6479 52.3349 3.77644 52.7187C2.90498 53.1025 2.36032 53.8152 2.14245 54.8751C1.92459 55.935 2.14245 56.8121 2.79605 57.5066C3.44964 58.201 4.41188 58.6761 5.68276 58.9319L7.8251 59.3705C9.09598 59.6264 10.1671 59.5715 11.0386 59.1878C11.9101 58.804 12.4547 58.0913 12.6726 57.0314C12.9086 55.9898 12.6907 55.1126 12.019 54.4182Z" fill="#DBDBDB"/>
<path d="M15.4321 47.1633L15.9586 45.7196L7.17136 40.9501L6.24543 42.1927L5.88232 41.9734L7.6434 38.7023L9.11399 39.5064C8.44224 38.0993 8.38777 36.8932 8.93243 35.8698C9.18661 35.3764 9.54972 35.0109 10.0036 34.7734C10.4575 34.5358 10.9114 34.5358 11.3653 34.7916C11.6921 34.9744 11.9099 35.2302 12.0189 35.5774C12.1278 35.9246 12.0733 36.2719 11.8918 36.6373C11.6739 37.0211 11.3471 37.2769 10.8932 37.35C10.7843 37.1125 10.639 36.9297 10.4393 36.8201C10.2215 36.7104 10.0036 36.6739 9.78574 36.747C9.56787 36.8201 9.40447 36.9845 9.25923 37.2221C9.11399 37.4962 9.09583 37.8434 9.18661 38.2637C9.27739 38.6841 9.49525 39.214 9.82205 39.8536L16.9934 43.746L18.0101 42.3024L18.3914 42.5034L15.7952 47.3278L15.4321 47.1633Z" fill="#DBDBDB"/>
<path d="M22.5671 36.2536L22.2403 35.9612L23.1662 34.5907L11.111 23.8089L9.85829 24.887L9.53149 24.5946L12.0733 21.7256L24.6005 32.946L25.7806 31.9409L26.1074 32.2333L22.5671 36.2536Z" fill="#DBDBDB"/>
<path d="M31.064 27.1166C30.1381 27.1349 29.2484 26.8973 28.4133 26.3857C27.5781 25.874 26.8338 25.1247 26.1802 24.1379C25.5447 23.1511 25.1635 22.1643 25.0545 21.1775C24.9456 20.1907 25.0909 19.2952 25.4903 18.4546C25.8897 17.614 26.5251 16.9196 27.3784 16.3531C28.0865 15.8962 28.8127 15.6769 29.5934 15.7135C30.3559 15.75 31.1003 15.9876 31.8265 16.4445L27.5963 9.884L26.1983 10.5419L25.9623 10.1764L29.0669 8.14795L38.1991 22.3105L39.597 21.6526L39.8331 22.0181L36.7285 24.0465L35.4939 22.1278C35.6028 22.9684 35.5302 23.7542 35.2397 24.4851C34.9492 25.1978 34.459 25.7826 33.751 26.2577C32.8977 26.806 31.9899 27.0983 31.064 27.1166ZM34.7858 24.2476C35.0219 23.6445 35.0945 23.0049 35.0219 22.3105C34.9492 21.6161 34.7132 20.9582 34.332 20.3369L32.9703 18.2171C32.5709 17.614 32.0625 17.1389 31.4634 16.7734C30.8643 16.4262 30.247 16.2252 29.6116 16.2069C28.9761 16.1703 28.3951 16.3348 27.8505 16.682C26.162 17.7968 26.0712 19.5328 27.5963 21.8902L28.7764 23.7359C30.3015 26.1115 31.9173 26.7511 33.6239 25.6547C34.1686 25.3257 34.568 24.8506 34.7858 24.2476Z" fill="#DBDBDB"/>
<path d="M52.6325 18.3815L52.578 17.9429L54.1757 17.5043L52.0696 1.42295H50.4175L50.363 0.984372L54.1394 0.490967L56.318 17.2302L57.8612 17.2485L57.9157 17.687L52.6325 18.3815Z" fill="#DBDBDB"/>
<path d="M64.3246 17.0658C63.7981 16.4627 63.6165 15.6404 63.7799 14.617L64.9237 6.92355L63.4531 6.48497L63.5257 6.04639L67.175 6.59461L65.9404 14.9094C65.8315 15.6404 65.9041 16.2434 66.1401 16.7186C66.3761 17.1754 66.8119 17.4678 67.4473 17.5592C68.1009 17.6505 68.7727 17.5409 69.4444 17.1937C70.1162 16.8465 70.7516 16.3896 71.3144 15.8048L72.4582 8.0931L70.9876 7.5997L71.0602 7.16112L74.7276 7.70934L73.1481 18.2901L74.6187 18.7653L74.5461 19.2038L70.8968 18.6556L71.2055 16.5724C70.57 17.212 69.8801 17.6871 69.0813 17.9795C68.3006 18.2719 67.4836 18.3632 66.6485 18.2353C65.6318 18.0708 64.8511 17.6871 64.3246 17.0658Z" fill="#DBDBDB"/>
<path d="M87.9267 24.7775L89.0705 25.5998L88.8707 25.9836L84.1322 23.5531L84.3319 23.1694L85.6028 23.5714L84.8039 18.5094L80.2106 20.483L81.5541 21.744L81.3544 22.1277L77.8867 20.3369L78.0864 19.9531L79.6296 20.1358L84.7313 17.9064L83.6783 11.2728L82.589 10.487L82.7887 10.1033L87.5272 12.5337L87.3275 12.9175L86.0022 12.4972L86.7284 17.084L90.886 15.3297L89.5788 14.0871L89.7785 13.7033L93.3551 15.5307L93.1554 15.9145L91.4851 15.6952L86.8192 17.6688L87.9267 24.7775Z" fill="#DBDBDB"/>
<path d="M93.4821 29.1268C93.4277 28.3227 93.7726 27.5552 94.517 26.8242L100.036 21.3602L99.1285 20.1175L99.4371 19.8069L102.033 22.4567L96.0784 28.341C95.5518 28.8709 95.2432 29.3826 95.1524 29.8943C95.0617 30.406 95.2432 30.8994 95.6971 31.3562C96.1691 31.8313 96.7683 32.142 97.5126 32.2699C98.257 32.3978 99.0377 32.3978 99.8365 32.2882L105.356 26.8059L104.448 25.5633L104.757 25.2526L107.353 27.9207L99.7821 35.4314L100.69 36.674L100.381 36.9847L97.785 34.3349L99.2737 32.8547C98.3841 33.0009 97.5489 32.9461 96.7319 32.7085C95.9331 32.4709 95.2251 32.0506 94.6441 31.4476C93.9179 30.6983 93.5184 29.9308 93.4821 29.1268Z" fill="#DBDBDB"/>
<path d="M102.905 40.2922L103.794 41.5532L112.654 36.9115L112.146 35.4495L112.527 35.2485L114.234 38.5562L112.745 39.342C114.27 39.5795 115.305 40.2191 115.831 41.2242C116.086 41.7176 116.195 42.211 116.122 42.7227C116.067 43.2344 115.813 43.5999 115.341 43.8557C115.014 44.0384 114.669 44.075 114.325 43.9654C113.98 43.8557 113.725 43.6364 113.526 43.2709C113.308 42.8506 113.29 42.4303 113.489 42.01C113.744 42.0648 113.98 42.0283 114.179 41.9186C114.397 41.809 114.542 41.6262 114.597 41.4252C114.651 41.2059 114.615 40.9684 114.488 40.7308C114.343 40.4567 114.07 40.2374 113.689 40.0912C113.29 39.945 112.727 39.8171 112.019 39.7257L104.793 43.5085L105.41 45.1715L105.029 45.3725L102.505 40.5115L102.905 40.2922Z" fill="#DBDBDB"/>
<path d="M102.324 53.3218C102.596 52.7918 103.05 52.4629 103.686 52.335C104.103 52.2436 104.484 52.2984 104.793 52.4994C105.102 52.7005 105.301 52.9746 105.374 53.3583C105.429 53.6324 105.429 53.8883 105.356 54.1259C105.283 54.3634 105.156 54.5644 104.956 54.7472C104.612 54.601 104.285 54.5462 103.958 54.6193C103.667 54.6741 103.45 54.8203 103.304 55.0396C103.159 55.2589 103.105 55.5147 103.177 55.8071C103.25 56.1543 103.413 56.4284 103.704 56.6294C103.976 56.8304 104.43 56.9766 105.029 57.068L108.969 57.6162L118.519 50.471L118.446 48.9908L118.882 48.8994L119.953 54.2538L119.535 54.3451L118.972 52.9015L112.073 58.0365L119.935 59.0964L120.098 57.1411L120.534 57.0497L121.315 60.9239L120.897 61.0152L120.062 59.663L105.193 57.6893C104.285 57.5614 103.613 57.3238 103.141 56.9766C102.669 56.6294 102.36 56.0629 102.197 55.2771C101.979 54.4913 102.033 53.8517 102.324 53.3218Z" fill="#DBDBDB"/>
<path d="M122.785 80.6602C123.13 80.4409 123.493 80.3861 123.893 80.4774C124.292 80.5688 124.583 80.7881 124.782 81.1353C124.982 81.4825 125.036 81.848 124.946 82.2683C124.855 82.6521 124.637 82.9445 124.31 83.1455C123.983 83.3465 123.62 83.4013 123.221 83.3099C122.821 83.2186 122.513 82.9993 122.313 82.6704C122.095 82.3414 122.041 81.9759 122.132 81.5922C122.222 81.1901 122.44 80.8795 122.785 80.6602ZM104.012 72.9302C104.484 72.5464 105.029 72.4185 105.628 72.5647C106.01 72.6561 106.3 72.8388 106.482 73.1129C106.663 73.387 106.718 73.6977 106.645 74.0632C106.572 74.3921 106.373 74.648 106.082 74.8307C105.792 75.0134 105.483 75.0683 105.156 74.9952C105.138 74.52 104.902 74.2459 104.484 74.1363C104.285 74.0815 104.085 74.118 103.885 74.2459C103.686 74.3738 103.559 74.5566 103.486 74.8124C103.359 75.3241 103.522 75.7444 103.958 76.0733C104.394 76.4023 105.229 76.6947 106.445 76.9871L119.227 80.0389L119.826 78.4855L120.243 78.5952L119.354 82.3231L106.173 79.1617C104.938 78.8693 104.031 78.3576 103.45 77.6632C102.869 76.9505 102.723 75.9637 103.014 74.6845C103.214 73.8987 103.54 73.3139 104.012 72.9302Z" fill="#DBDBDB"/>
<path d="M105.864 88.2622C106.699 87.714 107.625 87.4216 108.66 87.385C109.677 87.3485 110.694 87.6043 111.728 88.1525C112.745 88.7008 113.544 89.3952 114.089 90.2541C114.633 91.113 114.924 92.045 114.942 93.0318C114.978 94.0186 114.742 94.9688 114.252 95.9008C113.816 96.7049 113.254 97.3445 112.564 97.8013C111.856 98.2582 111.093 98.4958 110.276 98.514C109.441 98.5323 108.624 98.3313 107.789 97.911L111.547 90.784L109.641 89.7607C108.515 89.1576 107.462 88.9201 106.5 89.0663C105.537 89.2124 104.793 89.7607 104.285 90.7292C103.813 91.6246 103.649 92.5384 103.795 93.4886C103.94 94.4389 104.357 95.2064 105.084 95.7912L104.848 96.2298C103.994 95.5353 103.468 94.6764 103.304 93.6348C103.123 92.5932 103.323 91.5515 103.867 90.4916C104.357 89.5597 105.029 88.8104 105.864 88.2622ZM109.386 96.047C110.494 96.6501 111.42 96.9059 112.164 96.8511C112.89 96.7963 113.453 96.3942 113.834 95.6633C114.288 94.8044 114.343 93.9637 113.998 93.1597C113.653 92.3556 112.981 91.6612 112.019 91.0581L109.386 96.047Z" fill="#DBDBDB"/>
<path d="M95.8424 101.237L106.717 106.354L107.916 105.568L108.206 105.897L104.575 109.186L104.285 108.857L104.847 107.962L96.9135 104.051L99.0195 109.314L101.961 110.666L102.941 110.063L103.232 110.392L99.419 113.864L99.1285 113.535L100.109 112.274L92.175 108.364L95.2795 116.24L97.0224 115.436L97.3129 115.765L94.4988 118.323L94.2084 117.994L94.862 116.697L90.6499 105.97L91.1038 105.55L98.3115 108.985L95.3885 101.657L95.8424 101.237Z" fill="#DBDBDB"/>
<path d="M81.8084 112.348C82.8069 112.476 83.6965 112.841 84.4954 113.481C85.2942 114.12 85.9115 114.979 86.3654 116.057C86.8011 117.136 86.9645 118.195 86.8193 119.201C86.6922 120.206 86.3109 121.101 85.7118 121.869C85.1126 122.636 84.3138 123.239 83.3516 123.623C82.4983 123.97 81.6631 124.098 80.8461 123.988C80.011 123.879 79.2848 123.568 78.6312 123.056C77.9776 122.545 77.4692 121.85 77.1061 120.991L84.5317 117.958L83.7147 115.948C83.2426 114.76 82.5709 113.901 81.7539 113.371C80.9187 112.859 80.011 112.805 78.9943 113.207C78.0683 113.59 77.3603 114.193 76.8519 114.998C76.3617 115.82 76.1983 116.679 76.3617 117.592L75.8897 117.775C75.6718 116.697 75.8352 115.71 76.3617 114.796C76.8882 113.883 77.7052 113.207 78.8127 112.75C79.8294 112.366 80.828 112.22 81.8084 112.348ZM79.5389 120.608C80.011 121.777 80.5556 122.581 81.1548 123.02C81.7539 123.44 82.4256 123.513 83.1882 123.184C84.0959 122.819 84.6588 122.216 84.9129 121.375C85.149 120.535 85.0945 119.566 84.7314 118.488L79.5389 120.608Z" fill="#DBDBDB"/>
<path d="M70.0982 115.601L70.1526 116.039L68.555 116.478L70.6791 132.559H72.3313L72.3857 132.998L68.6094 133.509L66.4126 116.77L64.8694 116.752L64.8149 116.313L70.0982 115.601Z" fill="#DBDBDB"/>
<path d="M60.1852 117.008L58.642 117.081L57.6434 127.077L59.1322 127.442L59.0959 127.881L55.4103 127.515L55.5737 125.834C54.5389 126.985 53.4495 127.515 52.3057 127.406C51.7611 127.351 51.289 127.15 50.8896 126.839C50.4902 126.51 50.3268 126.09 50.3813 125.56C50.4176 125.176 50.5628 124.884 50.8352 124.646C51.1075 124.427 51.4524 124.317 51.8519 124.372C52.3057 124.409 52.6689 124.646 52.923 125.03C52.7415 125.213 52.6507 125.432 52.6144 125.67C52.5962 125.907 52.6507 126.126 52.7959 126.291C52.9412 126.455 53.159 126.565 53.4314 126.583C53.74 126.62 54.0668 126.51 54.4118 126.254C54.7567 125.999 55.1743 125.597 55.6282 125.048L56.4452 116.88L54.7386 116.496L54.7749 116.057L60.2033 116.606L60.1852 117.008Z" fill="#DBDBDB"/>
<path d="M49.6914 109.369C49.9819 109.899 50.0182 110.466 49.764 111.05C49.6006 111.452 49.3465 111.745 49.0197 111.891C48.6747 112.055 48.3479 112.055 47.9848 111.909C47.7306 111.8 47.5128 111.653 47.3675 111.471C47.2041 111.288 47.1133 111.05 47.077 110.794C47.3857 110.593 47.6035 110.338 47.7306 110.027C47.8396 109.753 47.8396 109.497 47.7306 109.241C47.6217 109.004 47.4401 108.821 47.1678 108.711C46.841 108.583 46.5142 108.583 46.2056 108.693C45.8788 108.821 45.5157 109.113 45.1163 109.57L42.52 112.585L43.2099 124.537L44.4808 125.286L44.3174 125.688L39.2884 123.66L39.4518 123.257L40.9587 123.586L40.4685 114.961L35.276 120.991L36.8192 122.198L36.6558 122.6L33.0066 121.138L33.17 120.736L34.7495 120.79L44.5534 109.351C45.1526 108.675 45.7335 108.218 46.2782 108.017C46.8229 107.816 47.4583 107.852 48.2027 108.163C48.9107 108.437 49.4009 108.839 49.6914 109.369Z" fill="#DBDBDB"/>
<path d="M28.4314 95.0419L12.7633 110.283L12.2368 109.734L27.9049 94.4937L28.4314 95.0419Z" fill="#D2B976"/>
<circle cx="62" cy="65.491" r="6" fill="#D2B976"/>
</svg>
