<svg width="75" height="80" viewBox="0 0 75 80" fill="none" xmlns="http://www.w3.org/2000/svg">
<path d="M8.31309 46.624L2.22465 50.3836V51.242L1.96556 51.2855L1.52296 48.3952L1.78205 48.3517L2.04113 48.9276L6.56428 46.2437L3.27177 45.5809L1.65251 46.6132L1.62012 47.2977L1.36104 47.3412L0.896848 44.2988L1.15593 44.2553L1.46899 45.1572L5.99214 42.4733L1.09116 41.4519L0.918438 42.582L0.659355 42.6254L0.324707 40.3762L0.58379 40.3328L1.01559 41.0825L7.68697 42.4842L7.74095 42.8428L3.69278 45.3202L8.25911 46.2546L8.31309 46.624Z" fill="#333333"/>
<path d="M7.38474 36.0297C6.99611 36.4752 6.51033 36.7903 5.93819 36.9751C5.35526 37.1598 4.72914 37.1924 4.05984 37.0511C3.39055 36.9099 2.8292 36.6491 2.37581 36.247C1.92241 35.845 1.59856 35.3669 1.41504 34.8019C1.23152 34.2369 1.20993 33.6501 1.32868 33.0416C1.45822 32.4332 1.70651 31.9007 2.09513 31.4552C2.48376 31.0097 2.95874 30.6946 3.54168 30.5099C4.11382 30.3252 4.73994 30.3035 5.40923 30.4339C6.07853 30.5751 6.63987 30.8359 7.10406 31.2379C7.56825 31.64 7.88131 32.1181 8.06483 32.6831C8.24835 33.2481 8.26994 33.8348 8.15119 34.4433C8.02165 35.0627 7.76257 35.5842 7.38474 36.0297ZM7.4711 32.8243C7.08247 32.4114 6.51033 32.1289 5.75468 31.9659L4.48085 31.7052C3.7252 31.553 3.08828 31.5856 2.57012 31.8138C2.05195 32.042 1.7281 32.4658 1.59856 33.096C1.46902 33.7262 1.59856 34.2477 1.98718 34.6606C2.37581 35.0735 2.94795 35.3561 3.70361 35.5082L4.97743 35.769C5.73309 35.9211 6.37 35.8885 6.88816 35.6603C7.40633 35.4321 7.73018 35.0084 7.85972 34.3781C8.00006 33.7588 7.87052 33.2372 7.4711 32.8243Z" fill="#333333"/>
<path d="M9.50025 28.5104L9.81331 27.652L4.58847 24.816L4.03792 25.5549L3.82202 25.4245L4.86915 23.4795L5.74355 23.9576C5.34413 23.1209 5.31175 22.4038 5.6356 21.7953C5.78673 21.5019 6.00263 21.2846 6.27251 21.1434C6.54239 21.0021 6.81227 21.0021 7.08214 21.1542C7.27646 21.2629 7.406 21.415 7.47077 21.6215C7.53554 21.8279 7.50315 22.0344 7.3952 22.2517C7.26566 22.4799 7.07135 22.632 6.80147 22.6755C6.7367 22.5342 6.65034 22.4255 6.53159 22.3603C6.40205 22.2951 6.27251 22.2734 6.14297 22.3169C6.01343 22.3603 5.91627 22.4581 5.82991 22.5994C5.74355 22.7624 5.73276 22.9688 5.78673 23.2187C5.84071 23.4687 5.97025 23.7838 6.16456 24.1641L10.4286 26.4785L11.0332 25.6201L11.2599 25.7396L9.71615 28.6082L9.50025 28.5104Z" fill="#333333"/>
<path d="M13.7431 22.0236L13.5488 21.8498L14.0993 21.0349L6.93136 14.6241L6.1865 15.2651L5.99219 15.0913L7.5035 13.3854L14.9521 20.0569L15.6538 19.4593L15.8481 19.6332L13.7431 22.0236Z" fill="#333333"/>
<path d="M18.7952 16.5905C18.2446 16.6013 17.7157 16.4601 17.2191 16.1559C16.7225 15.8516 16.2799 15.4061 15.8913 14.8194C15.5135 14.2326 15.2868 13.6459 15.222 13.0591C15.1572 12.4724 15.2436 11.9399 15.4811 11.4401C15.7186 10.9403 16.0964 10.5274 16.6038 10.1905C17.0248 9.9189 17.4566 9.78851 17.9208 9.81024C18.3742 9.83197 18.8168 9.97323 19.2486 10.2449L16.7333 6.34406L15.9021 6.73523L15.7617 6.51791L17.6077 5.31181L23.0377 13.7328L23.8689 13.3416L24.0092 13.5589L22.1632 14.765L21.4292 13.6241C21.4939 14.124 21.4508 14.5912 21.278 15.0258C21.1053 15.4496 20.8139 15.7973 20.3928 16.0798C19.8855 16.4058 19.3457 16.5796 18.7952 16.5905ZM21.0082 14.8846C21.1485 14.526 21.1917 14.1457 21.1485 13.7328C21.1053 13.3199 20.965 12.9287 20.7383 12.5593L19.9287 11.2989C19.6912 10.9403 19.3889 10.6578 19.0327 10.4405C18.6764 10.234 18.3094 10.1145 17.9316 10.1036C17.5537 10.0819 17.2083 10.1797 16.8844 10.3861C15.8805 11.0489 15.8265 12.0812 16.7333 13.4829L17.435 14.5803C18.3418 15.9929 19.3025 16.3732 20.3173 15.7212C20.6411 15.5256 20.8786 15.2431 21.0082 14.8846Z" fill="#333333"/>
<path d="M31.6197 11.3972L31.5873 11.1364L32.5372 10.8756L31.285 1.31375H30.3026L30.2703 1.05297L32.5156 0.759598L33.8111 10.7126L34.7286 10.7235L34.761 10.9843L31.6197 11.3972Z" fill="#333333"/>
<path d="M38.5719 10.6148C38.2588 10.2562 38.1509 9.76729 38.248 9.15881L38.9281 4.58432L38.0537 4.32354L38.0969 4.06276L40.2667 4.38873L39.5326 9.33266C39.4679 9.76729 39.5111 10.1259 39.6514 10.4084C39.7917 10.68 40.0508 10.8539 40.4286 10.9082C40.8173 10.9625 41.2167 10.8973 41.6161 10.6909C42.0155 10.4844 42.3933 10.2128 42.728 9.86508L43.4081 5.27973L42.5337 4.98635L42.5769 4.72557L44.7575 5.05154L43.8183 11.3428L44.6927 11.6253L44.6495 11.8861L42.4797 11.5601L42.6632 10.3214C42.2854 10.7017 41.8752 10.9843 41.4002 11.1581C40.936 11.332 40.4502 11.3863 39.9536 11.3102C39.3491 11.2124 38.8849 10.9843 38.5719 10.6148Z" fill="#333333"/>
<path d="M52.6052 15.1994L53.2853 15.6883L53.1665 15.9165L50.349 14.4714L50.4678 14.2432L51.2234 14.4822L50.7484 11.4724L48.0173 12.6459L48.8161 13.3956L48.6974 13.6238L46.6355 12.559L46.7542 12.3308L47.6718 12.4395L50.7053 11.1138L50.0791 7.16956L49.4314 6.70233L49.5502 6.47415L52.3677 7.9193L52.249 8.14748L51.4609 7.89757L51.8927 10.6249L54.3648 9.58176L53.5875 8.84289L53.7063 8.61471L55.8329 9.70128L55.7142 9.92947L54.721 9.79908L51.9467 10.9726L52.6052 15.1994Z" fill="#333333"/>
<path d="M55.9086 17.7865C55.8762 17.3084 56.0813 16.852 56.5239 16.4174L59.8056 13.1685L59.2659 12.4296L59.4494 12.2449L60.9931 13.8205L57.4523 17.3192C57.1392 17.6343 56.9557 17.9386 56.9017 18.2428C56.8478 18.5471 56.9557 18.8404 57.2256 19.1121C57.5063 19.3946 57.8625 19.5793 58.3051 19.6554C58.7477 19.7314 59.2119 19.7314 59.6869 19.6662L62.9686 16.4065L62.4288 15.6676L62.6123 15.4829L64.156 17.0693L59.6545 21.5352L60.1942 22.274L60.0107 22.4587L58.467 20.8832L59.3522 20.0031C58.8233 20.09 58.3267 20.0574 57.8409 19.9162C57.3659 19.7749 56.9449 19.525 56.5995 19.1664C56.1677 18.7209 55.9302 18.2646 55.9086 17.7865Z" fill="#333333"/>
<path d="M61.5114 24.4255L62.0404 25.1752L67.3084 22.4153L67.0061 21.546L67.2328 21.4265L68.2476 23.3932L67.3624 23.8604C68.2692 24.0017 68.8845 24.382 69.1975 24.9796C69.3487 25.273 69.4134 25.5664 69.3703 25.8706C69.3379 26.1749 69.1867 26.3922 68.9061 26.5443C68.7118 26.6529 68.5067 26.6747 68.3015 26.6095C68.0964 26.5443 67.9453 26.4139 67.8266 26.1966C67.697 25.9467 67.6862 25.6968 67.805 25.4468C67.9561 25.4794 68.0964 25.4577 68.2152 25.3925C68.3447 25.3273 68.4311 25.2187 68.4635 25.0991C68.4959 24.9688 68.4743 24.8275 68.3987 24.6862C68.3123 24.5233 68.1504 24.3929 67.9237 24.3059C67.6862 24.219 67.3516 24.143 66.9306 24.0886L62.6341 26.3378L63.0011 27.3266L62.7744 27.4462L61.2739 24.5559L61.5114 24.4255Z" fill="#333333"/>
<path d="M61.166 32.1725C61.3279 31.8573 61.5978 31.6618 61.9756 31.5857C62.2239 31.5314 62.4506 31.564 62.6341 31.6835C62.8176 31.803 62.9364 31.966 62.9795 32.1942C63.0119 32.3572 63.0119 32.5093 62.9687 32.6505C62.9256 32.7918 62.85 32.9113 62.7313 33.02C62.5261 32.9331 62.3318 32.9005 62.1375 32.9439C61.9648 32.9765 61.8353 33.0634 61.7489 33.1938C61.6625 33.3242 61.6302 33.4763 61.6733 33.6502C61.7165 33.8567 61.8137 34.0196 61.9864 34.1392C62.1483 34.2587 62.4182 34.3456 62.7744 34.3999L65.117 34.7259L70.7952 30.4774L70.752 29.5973L71.0111 29.5429L71.648 32.7266L71.3997 32.7809L71.0651 31.9225L66.9629 34.9758L71.6372 35.606L71.7344 34.4434L71.9935 34.3891L72.4576 36.6926L72.2094 36.7469L71.7128 35.9429L62.8716 34.7694C62.3318 34.6933 61.9324 34.5521 61.6517 34.3456C61.3711 34.1392 61.1876 33.8023 61.0904 33.3351C60.9609 32.8679 60.9932 32.4876 61.166 32.1725Z" fill="#333333"/>
<path d="M73.332 48.4273C73.5371 48.2969 73.753 48.2643 73.9905 48.3186C74.228 48.373 74.4007 48.5033 74.5194 48.7098C74.6382 48.9162 74.6706 49.1336 74.6166 49.3835C74.5626 49.6117 74.4331 49.7855 74.2388 49.905C74.0445 50.0246 73.8286 50.0571 73.5911 50.0028C73.3536 49.9485 73.1701 49.8181 73.0513 49.6225C72.9218 49.4269 72.8894 49.2096 72.9434 48.9814C72.9973 48.7424 73.1269 48.5577 73.332 48.4273ZM62.1698 43.8311C62.4505 43.6029 62.7744 43.5268 63.1306 43.6137C63.3573 43.6681 63.53 43.7767 63.638 43.9397C63.7459 44.1027 63.7783 44.2874 63.7351 44.5047C63.6919 44.7003 63.5732 44.8524 63.4005 44.9611C63.2278 45.0698 63.0442 45.1024 62.8499 45.0589C62.8391 44.7764 62.6988 44.6134 62.4505 44.5482C62.3318 44.5156 62.213 44.5373 62.0943 44.6134C61.9755 44.6895 61.9 44.7981 61.8568 44.9502C61.7812 45.2545 61.8784 45.5044 62.1374 45.7C62.3965 45.8956 62.8931 46.0694 63.6164 46.2433L71.2161 48.0578L71.5724 47.1343L71.8207 47.1995L71.2917 49.4161L63.4545 47.5363C62.7204 47.3624 62.1806 47.0582 61.8352 46.6453C61.4897 46.2215 61.4034 45.6348 61.5761 44.8742C61.6949 44.4069 61.8892 44.0592 62.1698 43.8311Z" fill="#333333"/>
<path d="M63.2709 52.9486C63.7675 52.6226 64.318 52.4488 64.9334 52.427C65.5379 52.4053 66.1424 52.5574 66.7577 52.8834C67.3623 53.2094 67.8373 53.6223 68.1611 54.133C68.485 54.6436 68.6577 55.1978 68.6685 55.7845C68.6901 56.3713 68.5497 56.9363 68.2583 57.4905C67.9992 57.9686 67.6645 58.3489 67.2543 58.6205C66.8333 58.8922 66.3799 59.0334 65.8941 59.0443C65.3976 59.0551 64.9118 58.9356 64.4152 58.6857L66.6498 54.4481L65.5163 53.8396C64.847 53.481 64.2209 53.3398 63.6487 53.4267C63.0766 53.5136 62.634 53.8396 62.3317 54.4155C62.0511 54.9479 61.9539 55.4912 62.0403 56.0562C62.1266 56.6212 62.3749 57.0776 62.8067 57.4253L62.6664 57.6861C62.159 57.2732 61.846 56.7625 61.7488 56.1431C61.6409 55.5238 61.7596 54.9044 62.0835 54.2742C62.3749 53.7201 62.7743 53.2746 63.2709 52.9486ZM65.3652 57.5774C66.0237 57.936 66.5742 58.0881 67.0168 58.0555C67.4486 58.0229 67.7833 57.7839 68.01 57.3492C68.2799 56.8385 68.3122 56.3387 68.1071 55.8606C67.902 55.3825 67.5026 54.9696 66.9305 54.611L65.3652 57.5774Z" fill="#333333"/>
<path d="M57.312 60.6624L63.7783 63.7048L64.4908 63.2376L64.6635 63.4332L62.5045 65.389L62.3317 65.1934L62.6664 64.661L57.9489 62.3357L59.2012 65.4651L60.95 66.2692L61.5329 65.9106L61.7056 66.1062L59.4386 68.1707L59.2659 67.9751L59.8489 67.2253L55.1314 64.9001L56.9774 69.5832L58.0137 69.1051L58.1864 69.3007L56.5132 70.8219L56.3404 70.6263L56.7291 69.8549L54.2246 63.4766L54.4945 63.2267L58.7801 65.2695L57.0421 60.9123L57.312 60.6624Z" fill="#333333"/>
<path d="M48.9676 67.269C49.5613 67.345 50.0902 67.5623 50.5652 67.9426C51.0402 68.323 51.4073 68.8336 51.6771 69.4747C51.9362 70.1158 52.0334 70.746 51.947 71.3436C51.8714 71.9413 51.6447 72.4737 51.2885 72.93C50.9323 73.3864 50.4573 73.745 49.8851 73.9731C49.3778 74.1796 48.8812 74.2557 48.3954 74.1905C47.8988 74.1253 47.467 73.9406 47.0784 73.6363C46.6898 73.3321 46.3875 72.9192 46.1716 72.4085L50.5868 70.6048L50.101 69.4095C49.8204 68.7033 49.4209 68.1926 48.9352 67.8775C48.4386 67.5732 47.8988 67.5406 47.2943 67.7797C46.7438 68.0078 46.3228 68.3664 46.0205 68.8445C45.729 69.3335 45.6319 69.8442 45.729 70.3874L45.4483 70.4961C45.3188 69.855 45.416 69.2683 45.729 68.725C46.0421 68.1817 46.5279 67.7797 47.1864 67.508C47.7909 67.2798 48.3846 67.1929 48.9676 67.269ZM47.6182 72.1803C47.8988 72.8757 48.2227 73.3538 48.5789 73.6146C48.9352 73.8645 49.3346 73.908 49.788 73.7124C50.3277 73.4951 50.6624 73.1365 50.8135 72.6367C50.9539 72.1368 50.9215 71.5609 50.7056 70.9199L47.6182 72.1803Z" fill="#333333"/>
<path d="M42.0047 69.2028L42.037 69.4636L41.0871 69.7244L42.3501 79.2863H43.3325L43.3648 79.547L41.1195 79.8513L39.8133 69.8982L38.8957 69.8874L38.8633 69.6266L42.0047 69.2028Z" fill="#333333"/>
<path d="M36.1103 70.0394L35.1927 70.0828L34.599 76.0264L35.4842 76.2437L35.4626 76.5045L33.2712 76.2872L33.3684 75.2875C32.753 75.9721 32.1053 76.2872 31.4252 76.222C31.1014 76.1894 30.8207 76.0699 30.5832 75.8852C30.3457 75.6896 30.2486 75.4397 30.281 75.1246C30.3025 74.8964 30.3889 74.7225 30.5508 74.5813C30.7128 74.4509 30.9179 74.3857 31.1554 74.4183C31.4252 74.44 31.6411 74.5813 31.7923 74.8094C31.6843 74.9181 31.6303 75.0485 31.6088 75.1897C31.598 75.331 31.6303 75.4614 31.7167 75.5592C31.8031 75.657 31.9326 75.7222 32.0945 75.733C32.278 75.7548 32.4724 75.6896 32.6775 75.5374C32.8826 75.3853 33.1309 75.1463 33.4007 74.8203L33.8865 69.9633L32.8718 69.7351L32.8934 69.4743L36.1211 69.8003L36.1103 70.0394Z" fill="#333333"/>
<path d="M29.8707 65.4975C30.0434 65.8126 30.065 66.1495 29.9138 66.4972C29.8167 66.7362 29.6655 66.9101 29.4712 66.997C29.2661 67.0948 29.0718 67.0948 28.8559 67.0079C28.7048 66.9427 28.5752 66.8557 28.4889 66.7471C28.3917 66.6384 28.3378 66.4972 28.3162 66.3451C28.4997 66.2255 28.6292 66.0734 28.7048 65.8887C28.7696 65.7257 28.7696 65.5736 28.7048 65.4215C28.64 65.2802 28.5321 65.1715 28.3701 65.1064C28.1758 65.0303 27.9815 65.0303 27.798 65.0955C27.6037 65.1715 27.3878 65.3454 27.1503 65.617L25.6066 67.4099L26.0168 74.5161L26.7725 74.9616L26.6753 75.2007L23.6851 73.9946L23.7822 73.7555L24.6782 73.9511L24.3867 68.8224L21.2993 72.4082L22.2169 73.1253L22.1198 73.3643L19.95 72.4951L20.0471 72.256L20.9863 72.2886L26.8156 65.4867C27.1719 65.0846 27.5173 64.813 27.8412 64.6935C28.165 64.5739 28.5429 64.5957 28.9855 64.7804C29.4065 64.9434 29.6979 65.1824 29.8707 65.4975Z" fill="#333333"/>
<path d="M17.2298 56.9783L7.91364 66.0403L7.60059 65.7144L16.9168 56.6523L17.2298 56.9783Z" fill="#D2B976"/>
<circle cx="37.1894" cy="39.4085" r="3.56757" fill="#D2B976"/>
</svg>
